<svg xmlns="http://www.w3.org/2000/svg" width="30" height="22" viewBox="0 0 30 22" fill="none">

<path fill-rule="evenodd" clip-rule="evenodd" d="M8.31055 1.0224C12.7437 0.325866 17.2563 0.325866 21.6895 1.0224C24.3224 1.43116 26.2875 1.69791 27.7588 3.04974C29.253 4.37837 30 6.19663 30 8.50385V11.496C30 13.8032 29.253 15.6215 27.7588 16.9501C26.2876 18.3019 24.3223 18.5687 21.6895 18.9775C17.2563 19.674 12.7437 19.674 8.31055 18.9775C5.67765 18.5687 3.71245 18.3019 2.24121 16.9501C0.747023 15.6215 2.59136e-05 13.8032 0 11.496V8.50385C0 6.19663 0.747037 4.37837 2.24121 3.04974C3.71245 1.69791 5.67762 1.43116 8.31055 1.0224ZM23.8965 6.44037C22.1457 4.73399 19.5296 7.81326 17.1914 8.48041C16.5689 8.65794 15.8321 8.72544 14.9658 8.72455C14.1203 8.72367 13.3999 8.6545 12.791 8.48334C10.4638 7.82906 7.84429 4.74371 6.10352 6.44037C5.64464 6.8539 5.23545 7.55057 5.23535 8.39056V11.6093C5.23548 12.5365 5.64463 13.146 6.10352 13.5595C7.84434 15.2561 10.4015 12.103 12.7402 11.4921C13.3498 11.333 14.0832 11.2762 14.9658 11.2753C15.8694 11.2744 16.6151 11.3331 17.2334 11.499C19.5816 12.1291 22.1456 15.2659 23.8965 13.5595C24.3554 13.146 24.7645 12.5076 24.7646 11.6093V8.39056C24.7645 7.54451 24.3554 6.8539 23.8965 6.44037Z" fill="white"/>

</svg>