<svg width="14" height="10" viewBox="0 0 14 10" fill="none" xmlns="http://www.w3.org/2000/svg">
<path d="M12.3333 5.74935C12.7475 5.74935 13.0833 5.41356 13.0833 4.99935C13.0833 4.58513 12.7475 4.24935 12.3333 4.24935V4.99935V5.74935ZM1.66663 4.24935C1.25241 4.24935 0.916626 4.58513 0.916626 4.99935C0.916626 5.41356 1.25241 5.74935 1.66663 5.74935V4.99935V4.24935ZM3.80533 8.86537C4.09953 9.15696 4.5744 9.15484 4.86598 8.86064C5.15757 8.56644 5.15545 8.09157 4.86125 7.79999L4.33329 8.33268L3.80533 8.86537ZM3.15798 7.16781L3.68594 6.63512L3.15798 7.16781ZM3.15798 2.83089L2.63002 2.2982L3.15798 2.83089ZM4.86125 2.19871C5.15545 1.90712 5.15757 1.43225 4.86598 1.13806C4.5744 0.84386 4.09953 0.841741 3.80533 1.13332L4.33329 1.66602L4.86125 2.19871ZM1.67989 5.20824L0.935905 5.30307L0.935905 5.30307L1.67989 5.20824ZM1.67989 4.79046L0.935905 4.69563L0.935905 4.69563L1.67989 4.79046ZM12.3333 4.99935V4.24935H1.66663V4.99935V5.74935H12.3333V4.99935ZM4.33329 8.33268L4.86125 7.79999L3.68594 6.63512L3.15798 7.16781L2.63002 7.7005L3.80533 8.86537L4.33329 8.33268ZM3.15798 2.83089L3.68594 3.36358L4.86125 2.19871L4.33329 1.66602L3.80533 1.13332L2.63002 2.2982L3.15798 2.83089ZM3.15798 7.16781L3.68594 6.63512C3.20477 6.15822 2.88971 5.84436 2.67928 5.58234C2.47835 5.33215 2.43528 5.20296 2.42387 5.11341L1.67989 5.20824L0.935905 5.30307C0.996651 5.77965 1.22398 6.16576 1.50974 6.52158C1.786 6.86557 2.1739 7.24843 2.63002 7.7005L3.15798 7.16781ZM3.15798 2.83089L2.63002 2.2982C2.1739 2.75026 1.786 3.13313 1.50974 3.47711C1.22398 3.83294 0.996651 4.21905 0.935905 4.69563L1.67989 4.79046L2.42387 4.88529C2.43528 4.79574 2.47835 4.66655 2.67928 4.41636C2.88971 4.15434 3.20477 3.84048 3.68594 3.36358L3.15798 2.83089ZM1.67989 5.20824L2.42387 5.11341C2.41421 5.03767 2.41421 4.96103 2.42387 4.88529L1.67989 4.79046L0.935905 4.69563C0.9102 4.8973 0.9102 5.10139 0.935905 5.30307L1.67989 5.20824Z" fill="#50D2C1"/>
</svg>
