<svg width="21" height="20" viewBox="0 0 21 20" fill="none" xmlns="http://www.w3.org/2000/svg">
<path d="M10.5002 0C16.023 8.736e-05 20.5002 4.47721 20.5002 10C20.5002 15.5228 16.023 19.9999 10.5002 20C4.9774 20 0.500244 15.5228 0.500244 10C0.500244 4.47715 4.9774 0 10.5002 0ZM14.2073 6.29297C13.8168 5.90247 13.1837 5.90253 12.7932 6.29297L10.5002 8.58594L8.20728 6.29297C7.81678 5.90247 7.18374 5.90253 6.79321 6.29297C6.40269 6.68349 6.40269 7.31651 6.79321 7.70703L9.08618 10L6.79321 12.293C6.40269 12.6835 6.40269 13.3165 6.79321 13.707C7.18374 14.0975 7.81678 14.0975 8.20728 13.707L10.5002 11.4141L12.7932 13.707C13.1837 14.0975 13.8168 14.0975 14.2073 13.707C14.5977 13.3165 14.5977 12.6835 14.2073 12.293L11.9143 10L14.2073 7.70703C14.5977 7.31653 14.5977 6.68347 14.2073 6.29297Z" fill="#FF6E6E"/>
</svg>
