<svg width="16" height="17" viewBox="0 0 16 17" fill="none" xmlns="http://www.w3.org/2000/svg">
<g clip-path="url(#clip0_2114_4054)">
<path d="M14 0.5H2C0.89543 0.5 0 1.39543 0 2.5V14.5C0 15.6046 0.89543 16.5 2 16.5H14C15.1046 16.5 16 15.6046 16 14.5V2.5C16 1.39543 15.1046 0.5 14 0.5Z" fill="#97FCE4"/>
<path d="M13.4113 8.44955C13.4113 12.0086 11.2215 13.1507 10.0678 12.1338C9.11805 11.3047 8.8355 9.5525 7.407 9.3726C5.59395 9.14575 5.437 11.5472 4.24398 11.5472C2.85475 11.5472 2.58789 9.53685 2.58789 8.50435C2.58789 7.4483 2.88614 6.009 4.07131 6.009C5.4527 6.009 5.5312 8.0663 7.2579 7.95675C8.97675 7.83945 9.00815 5.69615 10.1228 4.78093C11.096 3.99087 13.4113 4.8435 13.4113 8.44955Z" fill="#072723"/>
</g>
<defs>
<clipPath id="clip0_2114_4054">
<rect width="16" height="16" fill="white" transform="translate(0 0.5)"/>
</clipPath>
</defs>
</svg>
