<svg width="25" height="24" viewBox="0 0 25 24" fill="none" xmlns="http://www.w3.org/2000/svg">
<path d="M15.5002 8C15.7729 8.00006 16.0201 8.10915 16.2004 8.28613C16.2048 8.29043 16.2088 8.29543 16.2131 8.2998C16.305 8.39336 16.3754 8.50007 16.4231 8.61426C16.4727 8.73292 16.5002 8.86333 16.5002 9V15C16.5002 15.5522 16.0524 15.9999 15.5002 16C14.948 16 14.5002 15.5523 14.5002 15V11.4141L8.20728 17.707C7.81679 18.0975 7.18375 18.0974 6.79321 17.707C6.40269 17.3165 6.40269 16.6835 6.79321 16.293L13.0862 10H9.50024C8.94796 10 8.50024 9.55228 8.50024 9C8.50024 8.44772 8.94796 8 9.50024 8H15.5002Z" fill="#97FCE4"/>
</svg>
