<svg width="107" height="24" viewBox="0 0 107 24" fill="none" xmlns="http://www.w3.org/2000/svg">
<path d="M-0.000166893 12C-0.000166893 18.6274 4.13169 24 9.2286 24C14.3255 24 13.8433 18.6274 13.8433 12C13.8433 5.37258 14.3255 0 9.2286 0C4.13169 0 -0.000166893 5.37258 -0.000166893 12Z" fill="white"/>
<path d="M15.1335 12.4118C15.1335 17.9346 14.5377 23 17.9043 23C21.2709 23 24 18.5228 24 13C24 7.47715 21.2709 3 17.9043 3C14.5377 3 15.1335 7.70588 15.1335 12.4118Z" fill="white"/>
<path d="M97.9062 22.1866V10.6026H99.1222L99.2342 11.9146C99.4049 11.6586 99.6236 11.4186 99.8902 11.1946C100.157 10.9599 100.477 10.7733 100.85 10.6346C101.224 10.4853 101.65 10.4106 102.13 10.4106C102.92 10.4106 103.602 10.5973 104.178 10.9706C104.765 11.3439 105.218 11.8506 105.538 12.4906C105.869 13.1199 106.034 13.8399 106.034 14.6506C106.034 15.4613 105.869 16.1866 105.538 16.8266C105.218 17.4559 104.765 17.9519 104.178 18.3146C103.592 18.6773 102.904 18.8586 102.114 18.8586C101.464 18.8586 100.888 18.7253 100.386 18.4586C99.8956 18.1919 99.5169 17.8186 99.2502 17.3386V22.1866H97.9062ZM101.97 17.6906C102.493 17.6906 102.957 17.5626 103.362 17.3066C103.768 17.0506 104.082 16.6986 104.306 16.2506C104.541 15.7919 104.658 15.2533 104.658 14.6346C104.658 14.0266 104.541 13.4933 104.306 13.0346C104.082 12.5759 103.768 12.2186 103.362 11.9626C102.957 11.7066 102.493 11.5786 101.97 11.5786C101.437 11.5786 100.968 11.7066 100.562 11.9626C100.157 12.2186 99.8423 12.5759 99.6183 13.0346C99.3943 13.4933 99.2823 14.0266 99.2823 14.6346C99.2823 15.2533 99.3943 15.7919 99.6183 16.2506C99.8423 16.6986 100.157 17.0506 100.562 17.3066C100.968 17.5626 101.437 17.6906 101.97 17.6906Z" fill="white"/>
<path d="M92.3486 18.8586C91.5912 18.8586 90.9192 18.6826 90.3326 18.3306C89.7566 17.9786 89.3032 17.4879 88.9726 16.8586C88.6419 16.2186 88.4766 15.4773 88.4766 14.6346C88.4766 13.7813 88.6366 13.0399 88.9566 12.4106C89.2872 11.7813 89.7459 11.2906 90.3326 10.9386C90.9299 10.5866 91.6126 10.4106 92.3806 10.4106C93.1699 10.4106 93.8366 10.5866 94.3806 10.9386C94.9352 11.2906 95.3566 11.7546 95.6446 12.3306C95.9432 12.8959 96.0926 13.5199 96.0926 14.2026C96.0926 14.3093 96.0926 14.4213 96.0926 14.5386C96.0926 14.6559 96.0872 14.7893 96.0766 14.9386H89.4846V13.8986H94.7806C94.7486 13.1626 94.5032 12.5866 94.0446 12.1706C93.5966 11.7546 93.0312 11.5466 92.3486 11.5466C91.8899 11.5466 91.4632 11.6533 91.0686 11.8666C90.6846 12.0693 90.3752 12.3733 90.1406 12.7786C89.9059 13.1733 89.7886 13.6693 89.7886 14.2666V14.7146C89.7886 15.3759 89.9059 15.9306 90.1406 16.3786C90.3859 16.8266 90.7006 17.1626 91.0846 17.3866C91.4792 17.6106 91.9006 17.7226 92.3486 17.7226C92.9139 17.7226 93.3779 17.5999 93.7406 17.3546C94.1139 17.0986 94.3806 16.7573 94.5406 16.3306H95.8686C95.7406 16.8106 95.5166 17.2426 95.1966 17.6266C94.8766 18.0106 94.4766 18.3146 93.9966 18.5386C93.5272 18.7519 92.9779 18.8586 92.3486 18.8586Z" fill="white"/>
<path d="M77.877 18.6666V7.46663H81.173C82.485 7.46663 83.5623 7.69596 84.405 8.15463C85.2583 8.60263 85.8876 9.24796 86.293 10.0906C86.709 10.9226 86.917 11.9253 86.917 13.0986C86.917 14.2506 86.709 15.2426 86.293 16.0746C85.8876 16.9066 85.2583 17.5466 84.405 17.9946C83.5623 18.4426 82.485 18.6666 81.173 18.6666H77.877ZM79.221 17.5466H81.141C82.229 17.5466 83.093 17.3706 83.733 17.0186C84.373 16.656 84.8316 16.144 85.109 15.4826C85.3863 14.8106 85.525 14.016 85.525 13.0986C85.525 12.16 85.3863 11.3546 85.109 10.6826C84.8316 10.0106 84.373 9.4933 83.733 9.13063C83.093 8.76796 82.229 8.58663 81.141 8.58663H79.221V17.5466Z" fill="white"/>
<path d="M71.875 18.6666V10.6026H73.091L73.187 12.1386C73.3683 11.7759 73.5977 11.4666 73.875 11.2106C74.163 10.9546 74.5043 10.7573 74.899 10.6186C75.3043 10.4799 75.763 10.4106 76.275 10.4106V11.8186H75.779C75.4377 11.8186 75.1123 11.8666 74.803 11.9626C74.4937 12.0479 74.2163 12.1919 73.971 12.3946C73.7363 12.5973 73.5497 12.8746 73.411 13.2266C73.283 13.5679 73.219 13.9946 73.219 14.5066V18.6666H71.875Z" fill="white"/>
<path d="M66.3173 18.8586C65.56 18.8586 64.888 18.6826 64.3013 18.3306C63.7253 17.9786 63.272 17.4879 62.9413 16.8586C62.6106 16.2186 62.4453 15.4773 62.4453 14.6346C62.4453 13.7813 62.6053 13.0399 62.9253 12.4106C63.256 11.7813 63.7146 11.2906 64.3013 10.9386C64.8986 10.5866 65.5813 10.4106 66.3493 10.4106C67.1386 10.4106 67.8053 10.5866 68.3493 10.9386C68.904 11.2906 69.3253 11.7546 69.6133 12.3306C69.912 12.8959 70.0613 13.5199 70.0613 14.2026C70.0613 14.3093 70.0613 14.4213 70.0613 14.5386C70.0613 14.6559 70.056 14.7893 70.0453 14.9386H63.4533V13.8986H68.7493C68.7173 13.1626 68.472 12.5866 68.0133 12.1706C67.5653 11.7546 67 11.5466 66.3173 11.5466C65.8586 11.5466 65.432 11.6533 65.0373 11.8666C64.6533 12.0693 64.344 12.3733 64.1093 12.7786C63.8746 13.1733 63.7573 13.6693 63.7573 14.2666V14.7146C63.7573 15.3759 63.8746 15.9306 64.1093 16.3786C64.3546 16.8266 64.6693 17.1626 65.0533 17.3866C65.448 17.6106 65.8693 17.7226 66.3173 17.7226C66.8826 17.7226 67.3466 17.5999 67.7093 17.3546C68.0826 17.0986 68.3493 16.7573 68.5093 16.3306H69.8373C69.7093 16.8106 69.4853 17.2426 69.1653 17.6266C68.8453 18.0106 68.4453 18.3146 67.9653 18.5386C67.496 18.7519 66.9466 18.8586 66.3173 18.8586Z" fill="white"/>
<path d="M52.7656 22.1866V10.6026H53.9816L54.0936 11.9146C54.2643 11.6586 54.483 11.4186 54.7496 11.1946C55.0163 10.9599 55.3363 10.7733 55.7096 10.6346C56.083 10.4853 56.5096 10.4106 56.9896 10.4106C57.779 10.4106 58.4616 10.5973 59.0376 10.9706C59.6243 11.3439 60.0776 11.8506 60.3976 12.4906C60.7283 13.1199 60.8936 13.8399 60.8936 14.6506C60.8936 15.4613 60.7283 16.1866 60.3976 16.8266C60.0776 17.4559 59.6243 17.9519 59.0376 18.3146C58.451 18.6773 57.763 18.8586 56.9736 18.8586C56.323 18.8586 55.747 18.7253 55.2456 18.4586C54.755 18.1919 54.3763 17.8186 54.1096 17.3386V22.1866H52.7656ZM56.8296 17.6906C57.3523 17.6906 57.8163 17.5626 58.2216 17.3066C58.627 17.0506 58.9416 16.6986 59.1656 16.2506C59.4003 15.7919 59.5176 15.2533 59.5176 14.6346C59.5176 14.0266 59.4003 13.4933 59.1656 13.0346C58.9416 12.5759 58.627 12.2186 58.2216 11.9626C57.8163 11.7066 57.3523 11.5786 56.8296 11.5786C56.2963 11.5786 55.827 11.7066 55.4216 11.9626C55.0163 12.2186 54.7016 12.5759 54.4776 13.0346C54.2536 13.4933 54.1416 14.0266 54.1416 14.6346C54.1416 15.2533 54.2536 15.7919 54.4776 16.2506C54.7016 16.6986 55.0163 17.0506 55.4216 17.3066C55.827 17.5626 56.2963 17.6906 56.8296 17.6906Z" fill="white"/>
<path d="M44.7548 22.1866L46.7228 17.7706H46.2588L43.0908 10.6026H44.5468L47.1708 16.7626L49.9228 10.6026H51.3148L46.1628 22.1866H44.7548Z" fill="white"/>
<path d="M40.2165 18.6667V7.46665H41.5605V18.6667H40.2165ZM33.0645 18.6667V7.46665H34.4085V18.6667H33.0645ZM34.1525 13.5147V12.4107H40.5525V13.5147H34.1525Z" fill="white"/>
</svg>
