<svg width="132" height="22" viewBox="0 0 132 22" fill="none" xmlns="http://www.w3.org/2000/svg">
<path d="M50.7979 11.1503C50.8873 11.5975 51.0655 12.2238 51.0879 13.0732C51.2668 12.4472 51.5358 11.7985 51.8711 11.1054L54.1514 6.38764H58.333L50.1924 21.4999H46.168L48.9414 16.8525L45.8105 6.38764H49.8359L50.7979 11.1503Z" fill="white"/>
<path fill-rule="evenodd" clip-rule="evenodd" d="M66.2793 6.03021C68.7614 6.03021 70.6172 8.06546 70.6172 11.1513C70.617 14.9971 68.1354 17.7918 64.8486 17.7919C63.3505 17.7919 62.1877 17.1658 61.1367 15.8466C61.1367 16.6067 61.0915 17.1883 61.0244 17.5908L60.4287 21.4999H56.5879L58.9893 6.38764H62.6572L62.4111 7.90814C63.5067 6.65617 64.8036 6.03026 66.2793 6.03021ZM64.2666 9.29486C62.7239 9.29506 61.5615 10.6371 61.5615 12.4482C61.5617 13.812 62.5005 14.7284 63.8867 14.7285C65.4743 14.7285 66.6152 13.4314 66.6152 11.6425C66.6151 10.2116 65.6529 9.29486 64.2666 9.29486Z" fill="white"/>
<path fill-rule="evenodd" clip-rule="evenodd" d="M127.646 6.03021C130.129 6.03021 131.984 8.06546 131.984 11.1513C131.984 14.9971 129.503 17.7918 126.216 17.7919C124.718 17.7919 123.555 17.1658 122.504 15.8466C122.504 16.6067 122.459 17.1883 122.392 17.5908L121.796 21.4999H117.955L120.356 6.38764H124.024L123.778 7.90814C124.874 6.65617 126.171 6.03026 127.646 6.03021ZM125.634 9.29486C124.091 9.29506 122.929 10.6371 122.929 12.4482C122.929 13.812 123.868 14.7284 125.254 14.7285C126.842 14.7285 127.982 13.4314 127.982 11.6425C127.982 10.2116 127.02 9.29486 125.634 9.29486Z" fill="white"/>
<path fill-rule="evenodd" clip-rule="evenodd" d="M8.31055 1.0224C12.7437 0.325866 17.2563 0.325866 21.6895 1.0224C24.3224 1.43116 26.2875 1.69791 27.7588 3.04974C29.253 4.37837 30 6.19663 30 8.50385V11.496C30 13.8032 29.253 15.6215 27.7588 16.9501C26.2876 18.3019 24.3223 18.5687 21.6895 18.9775C17.2563 19.674 12.7437 19.674 8.31055 18.9775C5.67765 18.5687 3.71245 18.3019 2.24121 16.9501C0.747023 15.6215 2.59136e-05 13.8032 0 11.496V8.50385C0 6.19663 0.747037 4.37837 2.24121 3.04974C3.71245 1.69791 5.67762 1.43116 8.31055 1.0224ZM23.8965 6.44037C22.1457 4.73399 19.5296 7.81326 17.1914 8.48041C16.5689 8.65794 15.8321 8.72544 14.9658 8.72455C14.1203 8.72367 13.3999 8.6545 12.791 8.48334C10.4638 7.82906 7.84429 4.74371 6.10352 6.44037C5.64464 6.8539 5.23545 7.55057 5.23535 8.39056V11.6093C5.23548 12.5365 5.64463 13.146 6.10352 13.5595C7.84434 15.2561 10.4015 12.103 12.7402 11.4921C13.3498 11.333 14.0832 11.2762 14.9658 11.2753C15.8694 11.2744 16.6151 11.3331 17.2334 11.499C19.5816 12.1291 22.1456 15.2659 23.8965 13.5595C24.3554 13.146 24.7645 12.5076 24.7646 11.6093V8.39056C24.7645 7.54451 24.3554 6.8539 23.8965 6.44037Z" fill="white"/>
<path fill-rule="evenodd" clip-rule="evenodd" d="M77.6621 6.03021C81.0833 6.03026 83.3193 8.31113 83.3193 11.7324C83.3193 12.023 83.2742 12.3809 83.2295 12.8281H74.9561V13.0742C74.9562 14.4827 75.6946 15.2206 77.0586 15.2206C78.0423 15.2206 78.8472 14.8181 79.7861 13.9462L81.8887 16.0703C80.6141 17.2777 78.9589 17.8593 76.9688 17.8593C73.3464 17.8593 71.2892 15.8244 71.2891 12.4033C71.2891 8.62422 73.9054 6.03021 77.6621 6.03021ZM77.6396 8.64642C76.5887 8.64642 75.6719 9.33959 75.2246 10.5917H79.6748C79.6077 9.38432 78.8247 8.64643 77.6396 8.64642Z" fill="white"/>
<path fill-rule="evenodd" clip-rule="evenodd" d="M104.019 17.4121H100.351L100.574 15.9804C99.4785 17.2325 98.1594 17.8593 96.6836 17.8593C94.2016 17.8592 92.3457 15.8015 92.3457 12.7158C92.3458 8.8697 94.8282 6.09662 98.1152 6.09662C99.5909 6.09671 100.754 6.70124 101.827 8.02045V7.70697C101.827 7.21507 101.871 6.74498 101.938 6.29779L102.695 1.49994H106.521L104.019 17.4121ZM99.0762 9.11615C97.4888 9.11629 96.3488 10.435 96.3486 12.2236C96.3487 13.6546 97.3099 14.5722 98.6963 14.5722C100.239 14.5722 101.402 13.2301 101.402 11.4189C101.402 10.0549 100.463 9.11615 99.0762 9.11615Z" fill="white"/>
<path fill-rule="evenodd" clip-rule="evenodd" d="M112.561 6.03021C115.982 6.03026 118.218 8.31113 118.218 11.7324C118.218 12.023 118.173 12.3809 118.128 12.8281H109.854V13.0742C109.855 14.4827 110.593 15.2206 111.957 15.2206C112.941 15.2205 113.746 14.8181 114.685 13.9462L116.787 16.0703C115.513 17.2777 113.857 17.8593 111.867 17.8593C108.245 17.8593 106.188 15.8244 106.188 12.4033C106.188 8.62422 108.804 6.03021 112.561 6.03021ZM112.538 8.64642C111.487 8.64642 110.57 9.3396 110.123 10.5917H114.573C114.506 9.38432 113.723 8.64642 112.538 8.64642Z" fill="white"/>
<path d="M38.5459 6.43256C38.4565 7.01383 38.3441 7.57275 38.21 8.10931C39.3727 6.70058 40.491 6.03023 41.9668 6.03021C44.2476 6.03021 45.5674 7.3272 45.5674 9.54096C45.5673 10.1669 45.4555 10.86 45.3438 11.6201L44.4268 17.4121H40.5361L41.4521 11.5751C41.5191 11.1731 41.542 10.8603 41.542 10.6591C41.542 9.69764 41.0277 9.20507 40.0439 9.20502C38.6352 9.20502 37.942 10.2114 37.6289 12.2685L36.8457 17.4121H33L35.5439 1.49994H39.3613L38.5459 6.43256Z" fill="white"/>
<path d="M91.9619 6.12006C92.1854 6.12009 92.4535 6.16521 92.7217 6.2099L91.9395 9.67572C91.4923 9.56394 91.0898 9.49704 90.665 9.49701C89.1446 9.49701 88.317 10.4356 88.0039 12.3808L87.2207 17.4121H83.375L85.1191 6.38861H88.8535L88.585 8.26654C89.2558 6.88019 90.419 6.12006 91.9619 6.12006Z" fill="white"/>
</svg>
