<svg width="24" height="24" viewBox="0 0 24 24" fill="none" xmlns="http://www.w3.org/2000/svg">
<path d="M16.4909 9.14935C17.6657 9.58289 19.8197 10.4184 20.2601 10.867C21.5875 12.2189 21.8427 15.5019 21.7805 17.3079C21.729 18.8099 22.4146 20.5855 22.4146 20.5855M18.2215 12.9315C17.3172 11.83 16.4532 11.8381 15.7753 11.1264C14.4553 9.74041 14.5814 9.84199 13.3713 8.58298C12.6528 7.83534 12.1624 7.39399 11.3994 7.87087C10.7588 8.27158 10.8066 8.81561 11.0997 9.51315C11.4575 10.3642 13.4136 13.1124 13.8227 13.7551C13.911 13.8933 13.9609 14.0504 13.9669 14.2151C14.0006 15.1049 14.1501 17.6282 17.5032 18.6756M12.7259 16.7783C13.5626 18.9275 14.8063 19.1967 15.684 21.133M12.3332 14.6816C12.2508 14.7426 12.1664 14.802 12.0814 14.859C10.428 15.9678 8.2968 16.3068 6.28501 15.5894C2.89694 14.3807 1.13198 10.6326 2.34296 7.21724C3.55394 3.80189 7.28185 2.01294 10.6699 3.2216C13.0407 4.06713 14.6164 6.15678 14.9343 8.50558C15.0025 9.01208 15.0129 9.53101 14.9599 10.0515" stroke="#9DB2BD" stroke-miterlimit="10" stroke-linecap="round"/>
</svg>
