<svg width="25" height="24" viewBox="0 0 25 24" fill="none" xmlns="http://www.w3.org/2000/svg">
<path d="M4.99844 7.87566L4.99844 5.625C4.99844 5.00368 5.50212 4.5 6.12344 4.5L8.36109 4.5M16.638 4.50078L18.8763 4.50078C19.4976 4.50078 20.0013 5.00446 20.0013 5.62578V7.87573M20.0013 16.1256V18.3755C20.0013 18.9968 19.4976 19.5005 18.8763 19.5005H16.6379M8.3614 19.4996H6.12305C5.50173 19.4996 4.99805 18.996 4.99805 18.3746L4.99805 16.1247M10.4775 11.509H13.0727C13.1832 11.509 13.2727 11.5986 13.2727 11.709V13.1878M14.9799 11.9536H17.8275M7.16913 11.509H8.64519M16.4666 15.6966V17.3498M17.8274 14.0485V14.6294M11.7141 17.35V15.5159C11.7141 15.4054 11.8036 15.3159 11.9141 15.3159H14.7799C14.8903 15.3159 14.9799 15.2263 14.9799 15.1159V13.8174M11.7141 6.65095V8.32353M7.1691 6.65104L10.1753 6.65104V9.67182H7.1691L7.1691 6.65104ZM8.5303 8.01919H8.81471V8.30498H8.5303V8.01919ZM14.8214 6.65095H17.8275V9.67174H14.8214V6.65095ZM16.1825 8.0191H16.4669V8.30489H16.1825V8.0191ZM7.16913 14.3291H10.1753V17.3492H7.16913V14.3291ZM8.53034 15.6966H8.81474V15.9824H8.53034V15.6966Z" stroke="black" stroke-miterlimit="10" stroke-linecap="round"/>
</svg>
