<svg width="16" height="18" viewBox="0 0 16 18" fill="none" xmlns="http://www.w3.org/2000/svg">
<path d="M8.5979 0.666016C9.22786 0.666124 9.79843 1.01582 10.1135 1.53223C10.2668 1.78223 10.3686 2.09102 10.343 2.41602C10.326 2.66601 10.4031 2.91609 10.5393 3.14941C10.9736 3.85772 11.9364 4.1246 12.6858 3.72461C13.5288 3.24145 14.5929 3.53267 15.0784 4.35742L15.6487 5.34082C16.1426 6.16582 15.8704 7.22422 15.0188 7.69922C14.295 8.12416 14.0398 9.06561 14.4739 9.78223C14.6101 10.0072 14.7637 10.1997 15.0022 10.3164C15.3001 10.4748 15.5299 10.7247 15.6917 10.9746C16.0066 11.4912 15.9815 12.1244 15.675 12.6826L15.0784 13.6826C14.7633 14.2158 14.176 14.5497 13.5715 14.5498C13.2735 14.5498 12.9407 14.4664 12.6682 14.2998C12.4468 14.1582 12.1916 14.1074 11.9192 14.1074C11.0762 14.1074 10.3687 14.7992 10.343 15.624C10.343 16.5824 9.5597 17.333 8.58032 17.333H7.42212C6.43434 17.3329 5.65063 16.5823 5.65063 15.624C5.63342 14.7993 4.92711 14.1076 4.08423 14.1074C3.80319 14.1074 3.54714 14.1581 3.33423 14.2998C3.0618 14.4663 2.72127 14.5498 2.43188 14.5498C1.81875 14.5498 1.23138 14.2159 0.91626 13.6826L0.328369 12.6826C0.0133471 12.1411 -0.00406665 11.4912 0.310791 10.9746C0.447013 10.7247 0.702979 10.4747 0.992432 10.3164C1.23089 10.1997 1.38476 10.0072 1.52954 9.78223C1.95487 9.06569 1.69939 8.12416 0.97583 7.69922C0.132715 7.22422 -0.140459 6.16582 0.344971 5.34082L0.91626 4.35742C1.4103 3.53269 2.46612 3.24134 3.31763 3.72461C4.05852 4.12444 5.02103 3.85768 5.45532 3.14941C5.59156 2.9161 5.66767 2.666 5.65063 2.41602C5.63361 2.09102 5.72809 1.78222 5.88989 1.53223C6.20505 1.01589 6.77529 0.682702 7.39673 0.666016H8.5979ZM8.01001 6.64941C6.67295 6.64941 5.59106 7.69948 5.59106 9.00781C5.59114 10.3161 6.67299 11.3574 8.01001 11.3574C9.34701 11.3574 10.4025 10.3161 10.4026 9.00781C10.4026 7.69949 9.34706 6.64943 8.01001 6.64941Z" fill="#9DB2BD"/>
</svg>
