<svg width="21" height="20" viewBox="0 0 21 20" fill="none" xmlns="http://www.w3.org/2000/svg">
<path d="M10.5002 0C16.023 8.736e-05 20.5002 4.47721 20.5002 10C20.5002 15.5228 16.023 19.9999 10.5002 20C4.9774 20 0.500244 15.5228 0.500244 10C0.500244 4.47715 4.9774 0 10.5002 0ZM14.3889 7.41406C13.9984 7.02371 13.3653 7.02369 12.9749 7.41406L9.4397 10.9502L8.02466 9.53516C7.63413 9.14505 7.00099 9.14484 6.6106 9.53516C6.22007 9.92568 6.22007 10.5597 6.6106 10.9502L8.73169 13.0713C9.12221 13.4618 9.7562 13.4618 10.1467 13.0713L14.3889 8.82812C14.7793 8.43759 14.7794 7.80455 14.3889 7.41406Z" fill="#97FCE4"/>
</svg>
