<svg width="24" height="24" viewBox="0 0 24 24" fill="none" xmlns="http://www.w3.org/2000/svg">
<path d="M12 2C17.5228 2.00009 22 6.47721 22 12V19C22 20.6568 20.6568 21.9999 19 22H18C16.3431 22 15 20.6569 15 19V16C15 14.3431 16.3431 13 18 13H20V12C20 7.58178 16.4182 4.00009 12 4C7.58172 4 4 7.58172 4 12V13H6C7.65678 13.0001 9 14.3432 9 16V19C9 20.6568 7.65678 21.9999 6 22H5C3.34315 22 2 20.6569 2 19V12C2 6.47715 6.47715 2 12 2ZM4 19C4 19.5523 4.44772 20 5 20H6C6.55221 19.9999 7 19.5522 7 19V16C7 15.4478 6.55221 15.0001 6 15H4V19ZM18 15C17.4477 15 17 15.4477 17 16V19C17 19.5523 17.4477 20 18 20H19C19.5522 19.9999 20 19.5522 20 19V15H18Z" fill="white"/>
</svg>
