<svg width="16" height="16" viewBox="0 0 16 16" fill="none" xmlns="http://www.w3.org/2000/svg">
<g clip-path="url(#clip0_2111_8077)">
<path d="M2.92502 14.1761L3.18627 13.7498L2.92502 14.1761ZM1.82455 13.0756L2.25087 12.8144L1.82455 13.0756ZM14.1755 13.0756L13.7492 12.8144L14.1755 13.0756ZM13.075 14.1761L12.8138 13.7498L13.075 14.1761ZM13.075 3.82518L12.8138 4.2515L13.075 3.82518ZM14.1755 4.92566L13.7492 5.1869V5.1869L14.1755 4.92566ZM2.92502 3.82518L3.18627 4.2515L2.92502 3.82518ZM1.82455 4.92566L2.25087 5.1869V5.1869L1.82455 4.92566ZM12.3179 1.69828L12.6787 1.35217V1.35217L12.3179 1.69828ZM2.56283 1.92784L2.86473 2.32642V2.32642L2.56283 1.92784ZM1.90298 2.61576L2.31319 2.90164L1.90298 2.61576ZM12.6667 3.42087H13.1667L13.1667 3.4184L12.6667 3.42087ZM12.2424 9.07642C12.5186 9.07642 12.7424 8.85256 12.7424 8.57642C12.7424 8.30028 12.5186 8.07642 12.2424 8.07642V8.57642V9.07642ZM10.4243 8.07642C10.1481 8.07642 9.92426 8.30028 9.92426 8.57642C9.92426 8.85256 10.1481 9.07642 10.4243 9.07642V8.57642V8.07642ZM7.00002 3.33398V3.83398H9.00002V3.33398V2.83398H7.00002V3.33398ZM9.00002 14.6673V14.1673H7.00002V14.6673V15.1673H9.00002V14.6673ZM7.00002 14.6673V14.1673C5.89919 14.1673 5.10869 14.1668 4.49208 14.1082C3.88291 14.0502 3.49529 13.9392 3.18627 13.7498L2.92502 14.1761L2.66377 14.6024C3.15632 14.9043 3.71506 15.0388 4.39742 15.1037C5.07235 15.1678 5.91856 15.1673 7.00002 15.1673V14.6673ZM1.33335 9.00065H0.833352C0.833352 10.0821 0.832825 10.9283 0.896997 11.6032C0.961877 12.2856 1.0964 12.8443 1.39823 13.3369L1.82455 13.0756L2.25087 12.8144C2.06151 12.5054 1.95043 12.1178 1.89251 11.5086C1.83388 10.892 1.83335 10.1015 1.83335 9.00065H1.33335ZM2.92502 14.1761L3.18627 13.7498C2.80503 13.5162 2.4845 13.1956 2.25087 12.8144L1.82455 13.0756L1.39823 13.3369C1.71431 13.8527 2.14798 14.2864 2.66377 14.6024L2.92502 14.1761ZM9.00002 14.6673V15.1673C10.0815 15.1673 10.9277 15.1678 11.6026 15.1037C12.285 15.0388 12.8437 14.9043 13.3363 14.6024L13.075 14.1761L12.8138 13.7498C12.5047 13.9392 12.1171 14.0502 11.508 14.1082C10.8914 14.1668 10.1008 14.1673 9.00002 14.1673V14.6673ZM14.1755 13.0756L13.7492 12.8144C13.5155 13.1956 13.195 13.5162 12.8138 13.7498L13.075 14.1761L13.3363 14.6024C13.8521 14.2864 14.2857 13.8527 14.6018 13.3369L14.1755 13.0756ZM13.075 3.82518L12.8138 4.2515C13.195 4.48513 13.5155 4.80566 13.7492 5.1869L14.1755 4.92566L14.6018 4.66441C14.2857 4.14861 13.8521 3.71494 13.3363 3.39886L13.075 3.82518ZM7.00002 3.33398V2.83398C5.91856 2.83398 5.07235 2.83346 4.39742 2.89763C3.71506 2.96251 3.15632 3.09703 2.66377 3.39886L2.92502 3.82518L3.18627 4.2515C3.49529 4.06214 3.88291 3.95106 4.49208 3.89314C5.10869 3.83451 5.89919 3.83398 7.00002 3.83398V3.33398ZM1.33335 9.00065H1.83335C1.83335 7.89983 1.83388 7.10932 1.89251 6.49271C1.95043 5.88354 2.06151 5.49592 2.25087 5.1869L1.82455 4.92566L1.39823 4.66441C1.0964 5.15695 0.961877 5.71569 0.896997 6.39806C0.832825 7.07298 0.833352 7.91919 0.833352 9.00065H1.33335ZM2.92502 3.82518L2.66377 3.39886C2.14798 3.71494 1.71431 4.14861 1.39823 4.66441L1.82455 4.92566L2.25087 5.1869C2.4845 4.80566 2.80503 4.48513 3.18627 4.2515L2.92502 3.82518ZM6.70207 1.33398V1.83398H10.2812V1.33398V0.833984H6.70207V1.33398ZM10.2812 1.33398V1.83398C10.8583 1.83398 11.2388 1.83514 11.5209 1.87468C11.7864 1.9119 11.8897 1.97424 11.957 2.0444L12.3179 1.69828L12.6787 1.35217C12.3966 1.05803 12.0439 0.938218 11.6597 0.884362C11.2921 0.832832 10.8289 0.833984 10.2812 0.833984V1.33398ZM6.70207 1.33398V0.833984C5.59527 0.833984 4.72331 0.833239 4.03154 0.911376C3.32913 0.990715 2.75314 1.15645 2.26094 1.52927L2.56283 1.92784L2.86473 2.32642C3.15655 2.10538 3.53178 1.97418 4.14378 1.90506C4.76641 1.83473 5.57206 1.83398 6.70207 1.83398V1.33398ZM1.33335 6.93107H1.83335C1.83335 5.7544 1.83398 4.91044 1.90188 4.25713C1.96892 3.61201 2.09702 3.21184 2.31319 2.90164L1.90298 2.61576L1.49277 2.32989C1.13932 2.83706 0.982599 3.42857 0.907234 4.15377C0.83272 4.87078 0.833352 5.77578 0.833352 6.93107H1.33335ZM2.56283 1.92784L2.26094 1.52927C1.96539 1.75313 1.70632 2.02346 1.49277 2.32989L1.90298 2.61576L2.31319 2.90164C2.46758 2.68011 2.65386 2.48614 2.86473 2.32642L2.56283 1.92784ZM12.6667 3.42087L13.1667 3.4184C13.1645 2.96729 13.1548 2.57637 13.0983 2.2523C13.0396 1.9155 12.9236 1.60749 12.6787 1.35217L12.3179 1.69828L11.957 2.0444C12.0193 2.10928 12.0754 2.20724 12.1132 2.42402C12.1532 2.65353 12.1644 2.9638 12.1667 3.42334L12.6667 3.42087ZM1.33335 6.93107H0.833352C0.833352 7.58152 0.819912 8.17678 0.833524 8.68081L1.33334 8.66732L1.83316 8.65382C1.81999 8.16611 1.83335 7.61668 1.83335 6.93107H1.33335ZM14.3333 10.3946V9.8946H10.4243V10.3946V10.8946H14.3333V10.3946ZM8.60608 8.57642H8.10608C8.10608 9.85671 9.14396 10.8946 10.4243 10.8946V10.3946V9.8946C9.69625 9.8946 9.10608 9.30443 9.10608 8.57642H8.60608ZM8.60608 8.57642H9.10608C9.10608 7.84841 9.69625 7.25824 10.4243 7.25824V6.75824V6.25824C9.14396 6.25824 8.10608 7.29612 8.10608 8.57642H8.60608ZM12.2424 8.57642V8.07642H10.4243V8.57642V9.07642H12.2424V8.57642ZM9.00002 3.33398V3.83398C9.9231 3.83398 10.63 3.8342 11.2024 3.86952C11.7742 3.90481 12.174 3.9736 12.4892 4.09328L12.6667 3.62586L12.8442 3.15843C12.3908 2.98625 11.8746 2.9091 11.2639 2.87142C10.6538 2.83377 9.91161 2.83398 9.00002 2.83398V3.33398ZM12.6667 3.62586L12.4892 4.09328C12.6072 4.13811 12.714 4.19038 12.8138 4.2515L13.075 3.82518L13.3363 3.39886C13.1806 3.3035 13.0174 3.22421 12.8442 3.15843L12.6667 3.62586ZM12.6667 3.42087H12.1667V3.62586H12.6667H13.1667V3.42087H12.6667ZM10.4243 6.75824V7.25824H14.6296V6.75824V6.25824H10.4243V6.75824ZM14.6667 9.00065H15.1667C15.1667 8.08435 15.1669 7.33912 15.1287 6.72705L14.6296 6.75824L14.1306 6.78943C14.1665 7.36328 14.1667 8.07267 14.1667 9.00065H14.6667ZM14.6296 6.75824L15.1287 6.72705C15.0764 5.89049 14.9498 5.23231 14.6018 4.66441L14.1755 4.92566L13.7492 5.1869C13.9684 5.54472 14.0816 6.00536 14.1306 6.78943L14.6296 6.75824ZM14.6667 9.00065H14.1667C14.1667 9.52566 14.1667 9.98212 14.16 10.3863L14.6599 10.3946L15.1598 10.4029C15.1667 9.98873 15.1667 9.52328 15.1667 9.00065H14.6667ZM14.6599 10.3946L14.16 10.3863C14.1383 11.692 14.0423 12.336 13.7492 12.8144L14.1755 13.0756L14.6018 13.3369C15.0553 12.5969 15.1385 11.6882 15.1598 10.4029L14.6599 10.3946ZM14.3333 10.3946V10.8946H14.6599V10.3946V9.8946H14.3333V10.3946Z" fill="#97FCE4"/>
</g>
<defs>
<clipPath id="clip0_2111_8077">
<rect width="16" height="16" fill="white"/>
</clipPath>
</defs>
</svg>
