<svg width="24" height="24" viewBox="0 0 24 24" fill="none" xmlns="http://www.w3.org/2000/svg">
<path d="M4.875 7.875H4.375H4.875ZM4.875 16.125H5.375H4.875ZM16.125 19.125V18.625V19.125ZM7.875 19.125V19.625L7.875 19.625L7.875 19.125ZM19.125 7.87502H18.625H19.125ZM19.125 16.125H19.625H19.125ZM16.125 4.87502L16.125 5.37502L16.125 4.87502ZM7.87501 4.875L7.87501 5.375L7.87501 4.875ZM19.125 14.7404V15.2404C19.4011 15.2404 19.625 15.0165 19.625 14.7404H19.125ZM14.7404 14.7404V15.2404V14.7404ZM19.125 9.25962H19.625V8.75962L19.125 8.75962L19.125 9.25962ZM14.7404 9.25961L14.7404 8.75961L14.7404 9.25961ZM15.2885 12H14.7885C14.7885 12.0265 14.7669 12.0481 14.7404 12.0481V12.5481V13.0481C15.3192 13.0481 15.7885 12.5788 15.7885 12H15.2885ZM14.7404 12.5481V12.0481C14.7138 12.0481 14.6923 12.0265 14.6923 12H14.1923H13.6923C13.6923 12.5788 14.1615 13.0481 14.7404 13.0481V12.5481ZM14.1923 12H14.6923C14.6923 11.9734 14.7138 11.9519 14.7404 11.9519V11.4519V10.9519C14.1615 10.9519 13.6923 11.4212 13.6923 12H14.1923ZM14.7404 11.4519V11.9519C14.7669 11.9519 14.7885 11.9734 14.7885 12H15.2885H15.7885C15.7885 11.4212 15.3192 10.9519 14.7404 10.9519V11.4519ZM4.875 7.875H4.375L4.375 16.125H4.875H5.375L5.375 7.875H4.875ZM16.125 19.125V18.625L7.875 18.625V19.125L7.875 19.625L16.125 19.625V19.125ZM19.125 7.87502H18.625V16.125H19.125H19.625V7.87502H19.125ZM16.125 4.87502L16.125 4.37502L7.87501 4.375L7.87501 4.875L7.87501 5.375L16.125 5.37502L16.125 4.87502ZM19.125 7.87502H19.625C19.625 5.94202 18.058 4.37502 16.125 4.37502L16.125 4.87502L16.125 5.37502C17.5057 5.37502 18.625 6.49431 18.625 7.87502H19.125ZM4.875 7.875H5.375C5.375 6.49429 6.49429 5.375 7.87501 5.375L7.87501 4.875L7.87501 4.375C5.94201 4.375 4.375 5.942 4.375 7.875H4.875ZM4.875 16.125H4.375C4.375 18.058 5.942 19.625 7.875 19.625V19.125V18.625C6.49429 18.625 5.375 17.5057 5.375 16.125H4.875ZM16.125 19.125V19.625C18.058 19.625 19.625 18.058 19.625 16.125H19.125L18.625 16.125C18.625 17.5057 17.5057 18.625 16.125 18.625V19.125ZM19.125 14.7404V14.2404L14.7404 14.2404V14.7404V15.2404L19.125 15.2404V14.7404ZM19.125 9.25962H18.625V14.7404H19.125H19.625V9.25962H19.125ZM19.125 9.25962L19.125 8.75962L14.7404 8.75961L14.7404 9.25961L14.7404 9.75961L19.125 9.75962L19.125 9.25962ZM12 12H12.5C12.5 10.7627 13.5031 9.75961 14.7404 9.75961L14.7404 9.25961L14.7404 8.75961C12.9508 8.75961 11.5 10.2104 11.5 12L12 12ZM12 12L11.5 12C11.5 13.7896 12.9508 15.2404 14.7404 15.2404V14.7404V14.2404C13.5031 14.2404 12.5 13.2373 12.5 12H12Z" fill="#0F1A20"/>
</svg>
