<svg width="24" height="24" viewBox="0 0 24 24" fill="none" xmlns="http://www.w3.org/2000/svg">
<circle cx="12" cy="12" r="12" fill="#213147"/>
<path d="M3.86328 8.07876V15.9209C3.86328 16.4199 4.12604 16.8822 4.55453 17.1317L11.2649 21.0507C11.6934 21.3003 12.2189 21.3003 12.6474 21.0507L19.3578 17.1317C19.7863 16.8822 20.049 16.4199 20.049 15.9209V8.07876C20.049 7.57968 19.7863 7.11742 19.3578 6.86788L12.6474 2.94887C12.2189 2.69933 11.6934 2.69933 11.2649 2.94887L4.55453 6.86788C4.13008 7.11742 3.86328 7.57968 3.86328 8.07876Z" fill="#213147"/>
<path d="M13.4226 13.5196L12.4646 16.1746C12.4363 16.2482 12.4363 16.33 12.4646 16.4037L14.1098 20.9731L16.0138 19.8604L13.7299 13.5196C13.6773 13.3724 13.4752 13.3724 13.4226 13.5196Z" fill="#12AAFF"/>
<path d="M15.3373 9.05259C15.2847 8.90532 15.0826 8.90532 15.0301 9.05259L14.072 11.7075C14.0437 11.7812 14.0437 11.863 14.072 11.9366L16.7683 19.4187L18.6723 18.306L15.3373 9.05259Z" fill="#12AAFF"/>
<path d="M11.9551 3.23952C12.0036 3.23952 12.048 3.25179 12.0925 3.27633L19.3526 7.51851C19.4375 7.5676 19.4901 7.6576 19.4901 7.75578V16.2401C19.4901 16.3383 19.4375 16.4283 19.3526 16.4774L12.0925 20.7237C12.0521 20.7482 12.0036 20.7605 11.9551 20.7605C11.9065 20.7605 11.8621 20.7482 11.8176 20.7237L4.56151 16.4815C4.47662 16.4324 4.42406 16.3424 4.42406 16.2442V7.75578C4.42406 7.6576 4.47662 7.5676 4.56151 7.51851L11.8217 3.27633C11.8621 3.25179 11.9106 3.23952 11.9551 3.23952ZM11.9551 2C11.6963 2 11.4376 2.06954 11.2072 2.20454L3.94706 6.44672C3.48623 6.71671 3.19922 7.21579 3.19922 7.75578V16.2401C3.19922 16.7801 3.48623 17.2833 3.94706 17.5533L11.2072 21.7955C11.4376 21.9305 11.6963 22 11.9551 22C12.2138 22 12.4725 21.9305 12.7029 21.7955L19.963 17.5533C20.4279 17.2833 20.7109 16.7842 20.7109 16.2401V7.75578C20.7109 7.21579 20.4239 6.71262 19.963 6.44263L12.7069 2.20454C12.4725 2.06954 12.2138 2 11.9551 2Z" fill="#9DCCED"/>
<path d="M7.15625 19.4269L7.82325 17.5779L9.16532 18.7069L7.91218 19.8687L7.15625 19.4269Z" fill="#213147"/>
<path d="M11.3438 7.15039H9.50455C9.36711 7.15039 9.2418 7.2363 9.19733 7.3672L5.25195 18.3142L7.15592 19.4269L11.5015 7.37129C11.5379 7.26493 11.4611 7.15039 11.3438 7.15039Z" fill="white"/>
<path d="M14.5659 7.15039H12.7266C12.5892 7.15039 12.4638 7.2363 12.4194 7.3672L7.91211 19.8687L9.81608 20.9814L14.7195 7.37539C14.7599 7.26493 14.6791 7.15039 14.5659 7.15039Z" fill="white"/>
</svg>
