<svg xmlns="http://www.w3.org/2000/svg" width="24" height="24" viewBox="0 0 24 24" fill="none">
  <circle cx="12" cy="12" r="12" fill="#2C3034" />
  <path fill-rule="evenodd" clip-rule="evenodd"
    d="M7.40457 15.3073C7.4493 15.2589 7.50336 15.2199 7.5635 15.1929C7.62364 15.1658 7.68863 15.1512 7.75456 15.1498H18.7514C18.7979 15.1505 18.8433 15.1646 18.882 15.1904C18.9207 15.2162 18.9511 15.2526 18.9696 15.2954C18.9881 15.3381 18.9939 15.3852 18.9862 15.4311C18.9785 15.477 18.9578 15.5197 18.9264 15.5541L16.5954 18.1423C16.5507 18.1907 16.4966 18.2297 16.4365 18.2567C16.3764 18.2838 16.3114 18.2984 16.2454 18.2998H5.2416C5.19507 18.2991 5.14972 18.285 5.11101 18.2592C5.07229 18.2334 5.04186 18.1969 5.02338 18.1542C5.00489 18.1115 4.99913 18.0644 5.0068 18.0185C5.01447 17.9726 5.03523 17.9299 5.0666 17.8955L7.40457 15.3073ZM18.9369 13.1618C18.9683 13.1962 18.989 13.2389 18.9967 13.2848C19.0044 13.3307 18.9986 13.3779 18.9801 13.4206C18.9616 13.4633 18.9312 13.4997 18.8925 13.5255C18.8538 13.5514 18.8084 13.5654 18.7619 13.5661L7.76156 13.5748C7.69563 13.5735 7.63064 13.5588 7.5705 13.5318C7.51036 13.5047 7.4563 13.4658 7.41157 13.4173L5.0631 10.8379C5.03173 10.8035 5.01097 10.7608 5.0033 10.7149C4.99563 10.669 5.00139 10.6219 5.01988 10.5792C5.03836 10.5365 5.06879 10.5 5.10751 10.4742C5.14622 10.4484 5.19157 10.4343 5.2381 10.4336L16.2384 10.4249C16.3044 10.4262 16.3694 10.4409 16.4295 10.4679C16.4896 10.495 16.5437 10.5339 16.5884 10.5824L18.9369 13.1618ZM7.40457 5.85745C7.4493 5.80899 7.50336 5.77007 7.5635 5.74301C7.62364 5.71594 7.68863 5.7013 7.75456 5.69995L18.7584 5.7087C18.8049 5.70936 18.8503 5.72344 18.889 5.74926C18.9277 5.77508 18.9581 5.81153 18.9766 5.85423C18.9951 5.89694 19.0009 5.94407 18.9932 5.98997C18.9855 6.03587 18.9648 6.07857 18.9334 6.11295L16.5954 8.69241C16.5507 8.74086 16.4966 8.77979 16.4365 8.80685C16.3764 8.83391 16.3114 8.84856 16.2454 8.84991H5.2416C5.19507 8.84925 5.14972 8.83517 5.11101 8.80935C5.07229 8.78353 5.04186 8.74708 5.02338 8.70437C5.00489 8.66167 4.99913 8.61454 5.0068 8.56864C5.01447 8.52274 5.03523 8.48004 5.0666 8.44566L7.40457 5.85745Z"
    fill="url(#paint0_linear_4988_12525)" />
  <defs>
    <linearGradient id="paint0_linear_4988_12525" x1="6.18176" y1="18.6001" x2="17.7514"
      y2="5.63916" gradientUnits="userSpaceOnUse">
      <stop offset="0.08" stop-color="#9945FF" />
      <stop offset="0.3" stop-color="#8752F3" />
      <stop offset="0.5" stop-color="#5497D5" />
      <stop offset="0.6" stop-color="#43B4CA" />
      <stop offset="0.72" stop-color="#28E0B9" />
      <stop offset="0.97" stop-color="#19FB9B" />
    </linearGradient>
  </defs>
</svg>