<svg width="24" height="24" viewBox="0 0 24 24" fill="none" xmlns="http://www.w3.org/2000/svg">
<rect width="24" height="24" rx="12" fill="#2C3034"/>
<g clip-path="url(#clip0_8558_60918)">
<path fill-rule="evenodd" clip-rule="evenodd" d="M18.1851 6.89593L16.1263 7.94718L6.18455 13.0222C6.15094 12.7652 6.13402 12.5063 6.13391 12.2472C6.13528 11.2131 6.40617 10.1973 6.91976 9.30044C7.43337 8.40358 8.17185 7.65675 9.06204 7.13393C9.95226 6.61111 10.9633 6.33044 11.995 6.31972C13.0268 6.30901 14.0434 6.56861 14.9443 7.07283L16.1227 6.47108L16.2985 6.38118C15.219 5.59593 13.9438 5.12509 12.614 5.02072C11.2842 4.91634 9.95146 5.18249 8.76313 5.78974C7.57479 6.397 6.57714 7.32171 5.88041 8.46168C5.18368 9.60164 4.81501 10.9125 4.81515 12.2493C4.81515 12.434 4.82214 12.6179 4.83613 12.8011C4.85571 13.0605 4.79831 13.3199 4.67113 13.5467C4.54396 13.7735 4.35269 13.9575 4.1214 14.0756L3.5 14.3932V15.8743L5.32949 14.9398L5.92196 14.6368L6.50574 14.3388L16.9864 8.98684L18.1641 8.38581L20.5984 7.14243V5.66198L18.1851 6.89593ZM20.5984 8.625L7.10111 15.5125L5.9234 16.115L3.5 17.3525V18.8323L5.90677 17.6034L7.96557 16.5521L17.9174 11.4699C17.9511 11.7286 17.968 11.9891 17.9681 12.25C17.9674 13.2853 17.6966 14.3024 17.1825 15.2003C16.6685 16.0983 15.929 16.8458 15.0374 17.3688C14.1459 17.8918 13.1335 18.172 12.1005 18.1816C11.0676 18.1912 10.0501 17.9299 9.14906 17.4236L9.07672 17.462L7.79919 18.1145C8.87847 18.8998 10.1533 19.3708 11.4829 19.4754C12.8126 19.58 14.1451 19.3143 15.3335 18.7074C16.5218 18.1006 17.5196 17.1763 18.2166 16.0367C18.9137 14.8972 19.2828 13.5866 19.2832 12.25C19.2832 12.0637 19.276 11.8773 19.2623 11.6932C19.2427 11.4339 19.3001 11.1745 19.4271 10.9478C19.5541 10.721 19.7452 10.5369 19.9763 10.4186L20.5984 10.1011V8.625ZM37.2627 13.5803C37.2627 11.1755 38.8643 9.65301 40.9289 9.65301C43.246 9.65301 44.6089 11.5815 44.4541 13.9885H38.6393C38.6812 15.6212 39.8612 16.4093 40.9709 16.4093C42.0951 16.4093 42.7129 15.9025 43.0355 15.1565H44.3557C44.0186 16.4521 42.8112 17.5359 40.9709 17.5359C38.5828 17.5359 37.2627 15.8184 37.2627 13.5803ZM40.9289 10.7507C39.8048 10.7507 38.7659 11.3676 38.653 12.8901H43.1057C43.0637 11.8208 42.2911 10.7507 40.9289 10.7507ZM29.488 11.4953L28.3118 11.2278C27.3532 11.0161 26.6479 10.5666 26.6479 9.66541C26.6479 8.52497 28.0224 8.17334 28.8109 8.17334C29.8237 8.17334 31.0021 8.58152 31.3392 9.74951H32.7303C32.3223 7.79199 30.7048 6.96259 28.8673 6.96259C27.2238 6.96259 25.1874 7.79344 25.1874 9.74951C25.1874 11.4388 26.5778 12.2276 27.9826 12.5371L29.2522 12.8047C30.5304 13.1005 31.4434 13.5224 31.4434 14.6063C31.4434 15.6213 30.5869 16.3238 29.0699 16.3238C27.4827 16.3238 26.5278 15.5916 26.2609 14.1843H24.8532C25.1201 16.2143 26.6371 17.5346 29.0388 17.5346C31.0643 17.5346 32.9155 16.4645 32.9155 14.4794C32.9155 12.4248 31.0477 11.8332 29.488 11.4953ZM34.3822 7.87734H35.6604V9.77757H37.0928V10.8056H35.6604V15.2963C35.6604 16.0843 35.7161 16.2815 36.4468 16.2815H37.0928V17.3509H36.1661C34.7193 17.3509 34.3822 17.0276 34.3822 15.4507V10.8056H33.1878V9.77757H34.3822V7.87734ZM60.9882 9.73697C59.9906 9.77902 59.2325 10.2445 58.8534 11.1021V9.77902H57.6027V17.3524H58.8809V13.383C58.8809 11.6937 59.4712 11.063 60.6511 11.063C60.8909 11.063 61.1304 11.0819 61.3673 11.1195V9.75074C61.2414 9.73976 61.1148 9.73515 60.9882 9.73697ZM56.3863 12.7509L56.3725 14.4967C56.3581 15.7756 56.4145 16.634 56.5686 17.3539H55.2766C55.222 17.0093 55.189 16.6616 55.1782 16.3128C54.7152 17.1023 53.9426 17.5373 52.5942 17.5373C51.1756 17.5373 49.9957 16.7485 49.9957 15.3551C49.9957 13.5643 52.0184 13.0329 55.108 12.6943V12.5116C55.108 11.1182 54.3499 10.6679 53.3943 10.6679C52.3273 10.6679 51.7232 11.2313 51.6668 12.1738H50.3466C50.4587 10.5411 51.92 9.62611 53.3805 9.62611C55.5016 9.62611 56.4007 10.5969 56.3863 12.7509ZM52.8749 16.5238C54.0692 16.5238 55.2064 15.9742 55.2064 14.1871V13.7079C52.8886 13.9333 51.4143 14.285 51.4143 15.3268C51.4143 16.0453 51.9619 16.5238 52.8749 16.5238ZM46.5917 7.14101H45.3135V17.3519H46.5917V7.14101ZM47.8693 7.14101H49.1475V17.3519H47.8693V7.14101Z" fill="white"/>
</g>
<defs>
<clipPath id="clip0_8558_60918">
<rect width="17" height="14.5" fill="white" transform="translate(3.5 5)"/>
</clipPath>
</defs>
</svg>
