<svg xmlns="http://www.w3.org/2000/svg" width="24" height="24" viewBox="0 0 24 24" fill="none">
  <circle cx="12" cy="12" r="12" fill="#F0B90B" />
  <path
    d="M13.8067 17.9472L13.8067 19.9657L11.9739 21L10.1933 19.9657L10.1933 17.9472L11.9739 18.9815L13.8067 17.9472ZM4 10.9657L5.78067 12L5.78067 15.4615L8.84691 17.2215L8.84691 19.24L4 16.4958L4 10.9657ZM19.9479 10.9657L19.9479 16.5042L15.0489 19.2484L15.0489 17.2298L18.1151 15.4699L18.1151 12.0083L19.9479 10.9657ZM15.0402 8.2215L16.873 9.25579L16.873 11.2743L13.8067 13.0343L13.8067 16.5459L12.0261 17.5802L10.2541 16.5459L10.2541 13.0259L7.07492 11.266L7.07492 9.24745L8.90771 8.21316L11.9739 9.97312L15.0402 8.2215ZM7.07492 12.7173L8.85559 13.7516L8.85559 15.7702L7.07492 14.7359L7.07492 12.7173ZM16.873 12.7173L16.873 14.7359L15.0923 15.7702L15.0923 13.7516L16.873 12.7173ZM5.78067 6.46154L7.61346 7.49583L5.78067 8.53012L5.78067 10.5487L4 9.51437L4 7.49583L5.78067 6.46154ZM18.1672 6.46154L20 7.49583L20 9.51437L18.1672 10.5487L18.1672 8.53012L16.3865 7.49583L18.1672 6.46154ZM11.9739 6.46154L13.8067 7.49583L11.9739 8.53012L10.1933 7.49583L11.9739 6.46154ZM11.9739 3L16.873 5.74421L15.0923 6.7785L12.0261 5.01853L8.89902 6.7785L7.11835 5.74421L11.9739 3Z"
    fill="white" />
</svg>