<svg xmlns="http://www.w3.org/2000/svg" width="24" height="24" viewBox="0 0 24 24" fill="none">
  <path
    d="M12 24C18.6274 24 24 18.6274 24 12C24 5.37257 18.6274 0 12 0C5.37257 0 0 5.37257 0 12C0 18.6274 5.37257 24 12 24Z"
    fill="#0098EA" />
  <path
    d="M16.0982 6.69751H7.90317C6.3964 6.69751 5.44137 8.32287 6.19943 9.63682L11.2571 18.4032C11.5871 18.9756 12.4142 18.9756 12.7443 18.4032L17.803 9.63682C18.56 8.32497 17.605 6.69751 16.0992 6.69751H16.0982ZM11.253 15.7743L10.1515 13.6425L7.49376 8.8891C7.31843 8.58485 7.53499 8.19498 7.90215 8.19498H11.2519V15.7753L11.253 15.7743ZM16.5055 8.88807L13.8488 13.6435L12.7474 15.7743V8.19395H16.0972C16.4643 8.19395 16.6809 8.58382 16.5055 8.88807Z"
    fill="white" />
</svg>